<?xml version="1.0" encoding="UTF-8"?>
<svg width="64px" height="64px" viewBox="0 0 64 64" version="1.1" xmlns="http://www.w3.org/2000/svg" xmlns:xlink="http://www.w3.org/1999/xlink">
    <!-- Generator: Sketch 51.2 (57519) - http://www.bohemiancoding.com/sketch -->
    <title>ic-values-excellent</title>
    <desc>Created with Sketch.</desc>
    <defs></defs>
    <g id="Page-1" stroke="none" stroke-width="1" fill="none" fill-rule="evenodd">
        <g id="About" transform="translate(-742.000000, -1100.000000)" fill="#101820" fill-rule="nonzero">
            <g id="values" transform="translate(250.000000, 700.000000)">
                <g id="deman-excellent" transform="translate(492.000000, 400.000000)">
                    <path d="M39.512375,0.887 C37.06625,0.2985 34.538875,0 32,0 C23.4525,0 15.416625,3.328625 9.3725,9.3725 C3.328625,15.416625 0,23.4525 0,32 C0,38.75625 2.064,45.172875 5.97675,50.62325 C5.31725,51.523875 4.9605,52.606125 4.9605,53.7435 C4.9605,55.158 5.511375,56.488 6.511625,57.488375 C7.512,58.488625 8.842,59.0395 10.2565,59.0395 C11.671,59.0395 13.001,58.488625 14.001375,57.488375 C15.001625,56.488 15.5525,55.158 15.5525,53.7435 C15.5525,52.329 15.001625,50.999 14.001375,49.998625 C13.001,48.998375 11.671,48.4475 10.2565,48.4475 C9.42175,48.4475 8.617,48.64075 7.8915,49.003625 C4.36075,44.0155 2.5,38.161 2.5,32 C2.5,21.778625 7.72625,12.755875 15.646,7.4605 L21.855125,7.4605 C22.899875,7.4605 23.749875,8.3105 23.749875,9.35525 C23.749875,10.4 22.9,11.25 21.85525,11.25 L19.801375,11.25 C17.912125,11.25 16.375,12.787125 16.375,14.676375 C16.375,16.565625 17.912125,18.10275 19.801375,18.10275 L28.277,18.10275 C29.649375,18.10275 30.765875,19.21925 30.765875,20.5915 C30.765875,21.963875 29.649375,23.080375 28.277,23.080375 L16.583875,23.080375 C13.780125,23.080375 11.499125,25.361375 11.499125,28.16525 C11.499125,30.969 13.780125,33.25 16.583875,33.25 L21.083375,33.25 C22.561375,33.25 23.763875,34.4525 23.763875,35.930625 C23.763875,37.408625 22.561375,38.611125 21.083375,38.611125 L13.25,38.611125 C12.55975,38.611125 12,39.170875 12,39.861125 C12,40.551375 12.55975,41.111125 13.25,41.111125 L21.083375,41.111125 C23.94,41.111125 26.263875,38.787125 26.263875,35.930625 C26.263875,33.074125 23.94,30.75 21.083375,30.75 L16.583875,30.75 C15.15875,30.75 13.999125,29.5905 13.999125,28.16525 C13.999125,26.74 15.158625,25.580375 16.583875,25.580375 L28.277,25.580375 C31.027875,25.580375 33.265875,23.342375 33.265875,20.5915 C33.265875,17.840625 31.027875,15.60275 28.277,15.60275 L19.801375,15.60275 C19.2905,15.60275 18.875,15.18725 18.875,14.676375 C18.875,14.1655 19.2905,13.75 19.801375,13.75 L21.85525,13.75 C24.278625,13.75 26.25,11.778625 26.25,9.35525 C26.25,6.931875 24.278625,4.9605 21.85525,4.9605 L20.212125,4.9605 C23.8245,3.3795 27.81125,2.5 32,2.5 C34.342,2.5 36.67275,2.775125 38.927375,3.31775 C39.599625,3.4795 40.273625,3.066 40.43525,2.394875 C40.59675,1.723625 40.1835,1.0485 39.512375,0.887 Z M8.2795,51.766625 C8.807625,51.238625 9.50975,50.947625 10.2565,50.947625 C11.00325,50.947625 11.7055,51.2385 12.2335,51.766625 C12.7615,52.29475 13.0525,52.996875 13.0525,53.743625 C13.0525,54.490375 12.761625,55.1925 12.2335,55.720625 C11.705375,56.24875 11.00325,56.539625 10.2565,56.539625 C9.50975,56.539625 8.8075,56.24875 8.2795,55.720625 C7.7515,55.1925 7.4605,54.490375 7.4605,53.743625 C7.4605,52.996875 7.751375,52.294625 8.2795,51.766625 Z M58.023375,13.3765 C61.935625,18.82775 64,25.247875 64,32 C64,40.5475 60.671375,48.583375 54.6275,54.6275 C48.583375,60.671375 40.5475,64 32,64 C29.28725,64 26.592,63.659625 23.98925,62.98875 C23.32075,62.816375 22.9185,62.13475 23.090875,61.466125 C23.26325,60.79775 23.94425,60.39525 24.6135,60.56775 C27.0125,61.186375 29.4975,61.5 32,61.5 C37.94875,61.5 43.49075,59.728375 48.129375,56.687375 L42.25,56.687375 C39.85025,56.687375 37.897875,54.735 37.897875,52.33525 C37.897875,49.935375 39.85025,47.983 42.25,47.983 L44.13875,47.983 C45.09625,47.983 45.875125,47.204125 45.875125,46.246625 C45.875125,45.289125 45.096125,44.510375 44.13875,44.510375 L39.591,44.510375 C36.840125,44.510375 34.602125,42.272375 34.602125,39.5215 C34.602125,36.770625 36.840125,34.532625 39.591,34.532625 L49.267375,34.532625 C50.692625,34.532625 51.852125,33.373 51.852125,31.947875 C51.852125,30.5225 50.6925,29.363 49.267375,29.363 L44.768,29.363 C41.911375,29.363 39.587375,27.039 39.587375,24.1825 C39.587375,21.326 41.91125,19.001875 44.768,19.001875 L58.493875,19.001875 C57.81075,17.615875 57.0145,16.277625 56.108,14.9965 C55.382625,15.35925 54.578125,15.552375 53.7435,15.552375 C52.329,15.552375 50.999,15.0015 49.998625,14.00125 C48.998375,13.000875 48.4475,11.670875 48.4475,10.256375 C48.4475,8.841875 48.998375,7.511875 49.998625,6.5115 C50.999,5.51125 52.329,4.960375 53.7435,4.960375 C55.158,4.960375 56.488,5.51125 57.488375,6.5115 C58.488625,7.511875 59.0395,8.841875 59.0395,10.256375 C59.0395,11.393625 58.68275,12.475875 58.023375,13.3765 Z M55.7205,12.2335 C56.248625,11.7055 56.5395,11.00325 56.5395,10.2565 C56.5395,9.50975 56.2485,8.807625 55.7205,8.2795 C55.1925,7.751375 54.49025,7.4605 53.7435,7.4605 C52.99675,7.4605 52.294625,7.7515 51.7665,8.2795 C51.238375,8.8075 50.9475,9.50975 50.9475,10.2565 C50.9475,11.00325 51.238375,11.705375 51.7665,12.2335 C52.2945,12.761625 52.99675,13.0525 53.7435,13.0525 C54.49025,13.0525 55.192375,12.7615 55.7205,12.2335 Z M51.419,54.1875 C57.593875,48.77625 61.5,40.836125 61.5,32 C61.5,28.3565 60.848375,24.81775 59.584875,21.502 L44.767875,21.502 C43.28975,21.502 42.08725,22.7045 42.08725,24.182625 C42.08725,25.660625 43.28975,26.863125 44.767875,26.863125 L49.26725,26.863125 C52.071,26.863125 54.352,29.144125 54.352,31.948 C54.352,34.75175 52.071,37.03275 49.26725,37.03275 L39.590875,37.03275 C38.2185,37.03275 37.102,38.14925 37.102,39.521625 C37.102,40.894 38.2185,42.0105 39.590875,42.0105 L44.138625,42.0105 C46.474625,42.0105 48.375,43.910875 48.375,46.24675 C48.375,48.58275 46.474625,50.483125 44.138625,50.483125 L42.25,50.483125 C41.22875,50.483125 40.397875,51.314 40.397875,52.335375 C40.397875,53.356625 41.22875,54.1875 42.25,54.1875 L51.419,54.1875 Z M21.04775,59.4 C21.68775,59.658875 21.996875,60.3875 21.738,61.027375 C21.54125,61.513875 21.073125,61.80925 20.57875,61.80925 C20.42275,61.80925 20.26425,61.779875 20.110625,61.717875 L20.07625,61.704125 C19.43625,61.44525 19.12725,60.716625 19.385875,60.076625 C19.644875,59.43675 20.37325,59.12775 21.013375,59.38625 L21.04775,59.4 Z M43.98425,2.320375 C44.622875,2.5825 44.92825,3.312625 44.66625,3.951375 C44.467875,4.43475 44.001375,4.72725 43.50925,4.72725 C43.352625,4.72725 43.193375,4.697625 43.0395,4.635125 C43.034125,4.632875 43.02425,4.629 43.021,4.627625 C42.382375,4.3655 42.077,3.635375 42.339,2.996625 C42.601,2.358125 43.331125,2.052375 43.97,2.314625 C43.97425,2.316375 43.98,2.318625 43.98425,2.320375 Z M9.508625,38.977375 C9.74125,39.209875 9.875,39.532375 9.875,39.861125 C9.875,40.189875 9.741125,40.512375 9.508625,40.744875 C9.27625,40.977375 8.95375,41.111125 8.625,41.111125 C8.29625,41.111125 7.97375,40.97725 7.74125,40.744875 C7.508625,40.512375 7.375,40.189875 7.375,39.861125 C7.375,39.532375 7.50875,39.209875 7.74125,38.977375 C7.97375,38.745 8.29625,38.611125 8.625,38.611125 C8.95375,38.611125 9.27625,38.745 9.508625,38.977375 Z" id="ic-values-excellent"></path>
                </g>
            </g>
        </g>
    </g>
</svg>