<?xml version="1.0" encoding="UTF-8"?>
<svg width="63px" height="63px" viewBox="0 0 63 63" version="1.1" xmlns="http://www.w3.org/2000/svg" xmlns:xlink="http://www.w3.org/1999/xlink">
    <!-- Generator: Sketch 51.2 (57519) - http://www.bohemiancoding.com/sketch -->
    <title>ic-values-innovate</title>
    <desc>Created with Sketch.</desc>
    <defs></defs>
    <g id="Page-1" stroke="none" stroke-width="1" fill="none" fill-rule="evenodd">
        <g id="About" transform="translate(-743.000000, -888.000000)" fill="#101820" fill-rule="nonzero">
            <g id="values" transform="translate(250.000000, 700.000000)">
                <g id="innovate" transform="translate(493.000000, 188.000000)">
                    <path d="M62.9939706,35.7218372 C62.9154648,34.3140249 62.220972,33.0245865 61.088545,32.1844028 C59.4209747,30.9472605 57.1660879,30.953536 55.5151293,32.1362903 C53.293835,30.1507594 50.7377224,28.6516442 47.9816539,27.6929635 C47.9816539,27.6900103 47.9821461,27.6870571 47.9821461,27.6839809 L47.9821461,21.4683684 L53.0004844,17.6829887 C53.308724,17.4504246 53.4899763,17.0866895 53.4899763,16.7008055 L53.4899763,11.8058861 C55.1480718,11.2767721 56.3524829,9.72203841 56.3524829,7.89093494 C56.3524829,5.62546583 54.5093205,3.78218044 52.2437284,3.78218044 C49.9781362,3.78218044 48.1349739,5.62534278 48.1349739,7.89093494 C48.1349739,9.73385118 49.3546431,11.2971984 51.0292272,11.8162223 L51.0292272,16.0878946 L46.0108889,19.8731513 C45.7026493,20.1057154 45.521397,20.4694505 45.521397,20.8553345 L45.521397,26.9926873 C44.307265,26.7218548 43.0642163,26.5518 41.8024641,26.4857223 L41.8024641,16.4874372 C41.8024641,15.8079564 41.2515703,15.2570627 40.5720896,15.2570627 C39.8924858,15.2570627 39.341715,15.8080795 39.341715,16.4874372 L39.341715,26.4894138 C38.1062955,26.5577064 36.8892103,26.7270229 35.6950124,26.99441 L35.6950124,20.8552115 C35.6950124,20.4690813 35.5137601,20.1053462 35.2055204,19.8730283 L30.1871821,16.0877716 L30.1871821,11.8163453 C31.8617663,11.2971984 33.0814355,9.73385118 33.0814355,7.89093494 C33.0814355,5.62546583 31.2382732,3.78218044 28.972681,3.78218044 C26.7070888,3.78218044 24.8639265,5.62534278 24.8639265,7.89093494 C24.8639265,9.72216146 26.0683375,11.2768952 27.726433,11.8058861 L27.726433,16.7011746 C27.726433,17.0873048 27.9076853,17.4510399 28.215925,17.6833578 L33.2342633,21.4686145 L33.2342633,27.684227 C33.2342633,27.6882876 33.2348786,27.6922252 33.2348786,27.6962859 C32.66725,27.8946421 32.1060201,28.1157625 31.551927,28.3611237 C28.8412639,29.5611049 26.4299808,31.262514 24.3810792,33.4174844 C23.4810933,33.6185477 22.6084244,33.953243 21.7976496,34.4199708 L12.8273221,39.5847383 L10.9542587,37.7116749 C10.2313414,36.9888806 9.27044579,36.5909377 8.24827144,36.5909377 C7.2260971,36.5909377 6.26507848,36.9890036 5.54228419,37.7116749 L1.12086025,42.1329758 C0.39806597,42.8557701 0,43.8166656 0,44.83884 C0,45.8610143 0.39806597,46.8220329 1.1207372,47.5448272 L15.4551728,61.8792628 C16.1780901,62.6020571 17.1389857,63 18.16116,63 C19.1833344,63 20.144353,62.601934 20.8671473,61.8792628 L25.2885712,57.4578389 C26.7805495,55.9657375 26.7805495,53.5380888 25.2885712,52.0459874 L14.6290167,41.3865559 L23.0251939,36.5523001 C24.6413295,35.6217978 26.591299,35.4012926 28.3744131,35.9471413 L40.9694173,39.8037669 C41.9095174,40.0917033 42.5209517,41.010762 42.4232502,41.9891306 C42.3170582,43.0520344 41.4314691,43.8535806 40.3632741,43.8535806 L31.7852293,43.8535806 C31.1056255,43.8535806 30.5548548,44.4045974 30.5548548,45.0839551 C30.5548548,45.7633128 31.1057486,46.3143296 31.7852293,46.3143296 L43.3505531,46.3229431 C43.661746,46.3229431 43.9613721,46.2050614 44.1890142,45.9929237 L56.7201556,34.3225154 C57.5219478,33.5758494 58.7424783,33.507926 59.622038,34.1605819 C60.1656719,34.5638159 60.4988906,35.1827562 60.5366669,35.8586686 C60.5744432,36.5345809 60.3117319,37.1866216 59.8163336,37.6479351 L45.2478574,51.2106026 C44.24291,52.1460269 42.9334145,52.6612362 41.5604252,52.6612362 L34.9461315,52.6612362 C34.2665277,52.6612362 33.715757,53.212253 33.715757,53.8916107 C33.715757,54.5710915 34.2666508,55.1219853 34.9461315,55.1219853 L41.5605483,55.1219853 C43.5576459,55.1219853 45.4625792,54.3724892 46.9246564,53.0116819 L61.4935018,39.4491375 C62.5255201,38.4886111 63.0724763,37.1298956 62.9939706,35.7218372 Z M50.5955999,7.89093494 C50.5955999,6.98233552 51.3348828,6.24292952 52.2436053,6.24292952 C53.1522047,6.24292952 53.8916107,6.98221247 53.8916107,7.89093494 C53.8916107,8.79965741 53.1524508,9.53894037 52.2436053,9.53894037 C51.3347598,9.53894037 50.5955999,8.79953436 50.5955999,7.89093494 Z M28.9728041,9.53894037 C28.0640816,9.53894037 27.3247986,8.79965741 27.3247986,7.89093494 C27.3247986,6.98221247 28.0640816,6.24292952 28.9728041,6.24292952 C29.8814035,6.24292952 30.6208095,6.98221247 30.6208095,7.89093494 C30.6208095,8.79965741 29.8814035,9.53894037 28.9728041,9.53894037 Z M23.5485246,53.7861571 C24.081207,54.3187165 24.081207,55.1853559 23.5485246,55.7179153 L19.1271006,60.1393392 C18.8690653,60.3974976 18.5260026,60.539497 18.1612831,60.539497 C17.7965636,60.539497 17.4533778,60.3974976 17.1954655,60.1393392 L2.8609069,45.8049036 C2.60287155,45.5468683 2.46074908,45.2038056 2.46074908,44.838963 C2.46074908,44.4741205 2.60287155,44.1310578 2.8609069,43.8731455 L7.28233084,39.4517215 C7.54036618,39.1935631 7.88342891,39.0515637 8.24814839,39.0515637 C8.61299093,39.0515637 8.95605366,39.1935631 9.21396595,39.4517215 L23.5485246,53.7861571 Z M44.8894134,41.9784253 C44.9771479,39.9344457 43.6656836,38.0559681 41.6901197,37.4510555 L29.0952386,33.5944299 C28.75759,33.4910682 28.4153886,33.4098553 28.0709724,33.3466077 C31.6020083,30.4724115 35.9644914,28.9146015 40.6083893,28.9146015 C45.4548271,28.9146015 50.0491359,30.6403744 53.6754123,33.7961085 L44.8894134,41.9784253 Z M30.8510356,53.021772 C31.0799081,53.2506445 31.2115714,53.5679899 31.2115714,53.8916107 C31.2115714,54.2151086 31.0799081,54.5325769 30.8510356,54.7613264 C30.6222861,54.990322 30.3048177,55.1219853 29.9811968,55.1219853 C29.6564685,55.1219853 29.3402306,54.990199 29.1101276,54.7613264 C28.881255,54.5327 28.7508223,54.2152316 28.7508223,53.8916107 C28.7508223,53.5681129 28.881255,53.2506445 29.1101276,53.021772 C29.3401076,52.7927764 29.6563455,52.6612362 29.9811968,52.6612362 C30.3046946,52.6612362 30.622163,52.7928994 30.8510356,53.021772 Z M41.4422975,11.3113491 C41.67117,11.5400986 41.8028333,11.857567 41.8028333,12.1811878 C41.8028333,12.5046857 41.67117,12.822154 41.4422975,13.0509035 C41.213548,13.2798991 40.8960796,13.4115624 40.5724587,13.4115624 C40.2477304,13.4115624 39.9314925,13.2797761 39.7013895,13.0509035 C39.4725169,12.8222771 39.3420842,12.5048087 39.3420842,12.1811878 C39.3420842,11.85769 39.4725169,11.5402216 39.7013895,11.3113491 C39.9314925,11.0824765 40.2476074,10.9508133 40.5724587,10.9508133 C40.8959565,10.9508133 41.2134249,11.0824765 41.4422975,11.3113491 Z M19.5191372,54.2521465 C19.7480097,54.4810191 19.879673,54.7984875 19.879673,55.1219853 C19.879673,55.4454831 19.7480097,55.7629515 19.5191372,55.991701 C19.2903877,56.2206966 18.9729193,56.3523598 18.6492984,56.3523598 C18.3258006,56.3523598 18.0083322,56.2206966 17.7794597,55.991701 C17.5505871,55.7630745 17.4189239,55.4456061 17.4189239,55.1219853 C17.4189239,54.7984875 17.5505871,54.4810191 17.7794597,54.2521465 C18.0082092,54.0231509 18.3256776,53.8916107 18.6492984,53.8916107 C18.9727962,53.8916107 19.2902646,54.023274 19.5191372,54.2521465 Z M40.5720896,0 C43.1501051,0 45.2476113,2.09750619 45.2476113,4.67552169 C45.2476113,7.25353719 43.1501051,9.35104338 40.5720896,9.35104338 C37.993951,9.35104338 35.8965679,7.25353719 35.8965679,4.67552169 C35.8965679,2.09750619 37.9940741,0 40.5720896,0 Z M40.5720896,6.8902943 C41.7932354,6.8902943 42.7868622,5.89679055 42.7868622,4.67552169 C42.7868622,3.45425283 41.7932354,2.46074908 40.5720896,2.46074908 C39.3506977,2.46074908 38.357317,3.45425283 38.357317,4.67552169 C38.357317,5.89679055 39.3509438,6.8902943 40.5720896,6.8902943 Z M20.0497277,13.4583213 C20.7292085,13.4583213 21.2801023,14.0093381 21.2801023,14.6886958 C21.2801023,15.3680535 20.7293315,15.9190704 20.0497277,15.9190704 L19.2058525,15.9190704 C18.5263717,15.9190704 17.9754779,15.3680535 17.9754779,14.6886958 C17.9754779,14.0093381 18.5262487,13.4583213 19.2058525,13.4583213 L20.0497277,13.4583213 Z M14.0798456,13.4583213 C14.7593264,13.4583213 15.3102202,14.0093381 15.3102202,14.6886958 C15.3102202,15.3680535 14.7594494,15.9190704 14.0798456,15.9190704 L13.2359704,15.9190704 C12.5564896,15.9190704 12.0055958,15.3680535 12.0055958,14.6886958 C12.0055958,14.0093381 12.5563666,13.4583213 13.2359704,13.4583213 L14.0798456,13.4583213 Z M16.6428491,16.0214478 C17.3223298,16.0214478 17.8732236,16.5723415 17.8732236,17.2518223 L17.8732236,18.0956976 C17.8732236,18.7750553 17.3224529,19.3260721 16.6428491,19.3260721 C15.9633683,19.3260721 15.4124745,18.7751783 15.4124745,18.0956976 L15.4124745,17.2518223 C15.4124745,16.5724646 15.9632452,16.0214478 16.6428491,16.0214478 Z M16.6428491,10.0513196 C17.3223298,10.0513196 17.8732236,10.6023364 17.8732236,11.2818172 L17.8732236,12.1255693 C17.8732236,12.8049271 17.3224529,13.3559439 16.6428491,13.3559439 C15.9633683,13.3559439 15.4124745,12.8050501 15.4124745,12.1255693 L15.4124745,11.2816941 C15.4124745,10.6023364 15.9632452,10.0513196 16.6428491,10.0513196 Z M61.7661801,20.5683825 C62.4456608,20.5683825 62.9965546,21.1193993 62.9965546,21.798757 C62.9965546,22.4781147 62.4457839,23.0291315 61.7661801,23.0291315 L60.9223048,23.0291315 C60.2428241,23.0291315 59.6919303,22.4781147 59.6919303,21.798757 C59.6919303,21.1193993 60.242701,20.5683825 60.9223048,20.5683825 L61.7661801,20.5683825 Z M55.7961749,20.5683825 C56.4756557,20.5683825 57.0265495,21.1193993 57.0265495,21.798757 C57.0265495,22.4781147 56.4757787,23.0291315 55.7961749,23.0291315 L54.9522997,23.0291315 C54.2728189,23.0291315 53.7219251,22.4781147 53.7219251,21.798757 C53.7219251,21.1193993 54.2726958,20.5683825 54.9522997,20.5683825 L55.7961749,20.5683825 Z M58.3591783,23.1315089 C59.0387822,23.1315089 59.5895529,23.6824027 59.5895529,24.3618835 L59.5895529,25.2057587 C59.5895529,25.8851164 59.0387822,26.4361333 58.3591783,26.4361333 C57.6796976,26.4361333 57.1288038,25.8852395 57.1288038,25.2057587 L57.1288038,24.3618835 C57.1288038,23.6825258 57.6795745,23.1315089 58.3591783,23.1315089 Z M58.3591783,17.1615038 C59.0387822,17.1615038 59.5895529,17.7123976 59.5895529,18.3918783 L59.5895529,19.2357536 C59.5895529,19.9151113 59.0387822,20.4661281 58.3591783,20.4661281 C57.6796976,20.4661281 57.1288038,19.9153574 57.1288038,19.2357536 L57.1288038,18.3918783 C57.1288038,17.7125206 57.6795745,17.1615038 58.3591783,17.1615038 Z" id="ic-values-innovate"></path>
                </g>
            </g>
        </g>
    </g>
</svg>