<?xml version="1.0" encoding="UTF-8"?>
<svg width="48px" height="64px" viewBox="0 0 48 64" version="1.1" xmlns="http://www.w3.org/2000/svg" xmlns:xlink="http://www.w3.org/1999/xlink">
    <!-- Generator: Sketch 51.2 (57519) - http://www.bohemiancoding.com/sketch -->
    <title>ic-values-authenticity</title>
    <desc>Created with Sketch.</desc>
    <defs></defs>
    <g id="Page-1" stroke="none" stroke-width="1" fill="none" fill-rule="evenodd">
        <g id="About" transform="translate(-258.000000, -1100.000000)" fill="#212A37" fill-rule="nonzero">
            <g id="values" transform="translate(250.000000, 700.000000)">
                <g id="authenticity" transform="translate(8.000000, 400.000000)">
                    <path d="M22.1163025,54.75 C22.8103303,54.75 23.3729163,55.30975 23.373042,56 L23.373042,62.75 C23.373042,63.44025 22.810456,64 22.1164282,64 C21.4224004,64 20.8598145,63.44025 20.8598145,62.75 L20.8598145,57.2435 C17.1790671,57.13525 13.7266465,55.667125 11.0965539,53.08175 L11.0338488,53.019625 C10.6440473,52.631875 10.27121,52.216125 9.92714911,51.785375 C9.7674335,51.585375 9.61048244,51.37775 9.46069408,51.168125 C7.70960281,48.71725 6.78398112,45.82775 6.78398112,42.811625 L6.78398112,42.25 L1.25663985,42.25 C0.879404399,42.25 0.522023447,42.081375 0.283392495,41.79075 C0.0447615421,41.500125 -0.0499871351,41.118125 0.0252840289,40.7505 L2.7644507,27.373875 L2.7644507,22.25 C2.7644507,17.56275 4.21269805,13.079375 6.95261868,9.28425 C7.35749964,8.723375 8.14263191,8.595375 8.70634884,8.998125 C9.27006577,9.400875 9.39886868,10.181875 8.99398773,10.7425 C6.5628171,14.11 5.27767821,18.08925 5.27767821,22.25 L5.27767821,27.5 C5.27767821,27.58375 5.26913324,27.667375 5.25242027,27.7495 L2.79498641,39.75 L8.04046921,39.75 C8.73449699,39.75 9.29708297,40.30975 9.29708297,41 L9.29708297,42.811625 C9.29708297,45.305625 10.0619838,47.6945 11.5091002,49.71975 C11.6330023,49.893125 11.7628105,50.065 11.8950063,50.230375 C12.1797549,50.587125 12.4883793,50.93125 12.8122086,51.253375 L12.8638555,51.3045 C15.1238753,53.526 18.1197682,54.75 21.298624,54.75 L22.1163025,54.75 Z M12.3847086,5.462625 C12.835456,5.987625 12.7731279,6.776625 12.2453502,7.225 L12.1955883,7.26725 C11.9587166,7.46925 11.6678105,7.568125 11.3784123,7.568125 C11.0242986,7.568125 10.6723211,7.42 10.4236372,7.131625 C9.97201022,6.607375 10.0330816,5.818375 10.5599798,5.369 L10.6130089,5.323875 C11.1409123,4.87575 11.9340869,4.937625 12.3847086,5.462625 Z M25.1320499,0 C37.4657139,0 47.4999004,9.981375 47.4999004,22.25 L47.4999004,48.50125 C47.4999004,50.569 45.8087496,52.25125 43.7300592,52.25125 L30.6534851,52.25125 C28.5747946,52.25125 26.8836438,50.569 26.8836438,48.50125 L26.8836438,38.31125 L16.3069772,30.06675 C16.0030023,29.829875 15.8254428,29.467 15.8254428,29.082875 L15.8254428,23.094625 C15.2053039,22.899375 14.6218581,22.55875 14.1310248,22.0705 C12.4949137,20.442875 12.4949137,17.79475 14.1310248,16.167125 C15.7671359,14.53975 18.4292721,14.539625 20.0655089,16.167125 C21.70162,17.79475 21.70162,20.442875 20.0655089,22.0705 C19.5662563,22.56725 18.9708727,22.9115 18.3386703,23.105 L18.3386703,28.4745 L26.8836438,35.13525 L26.8836438,25.019375 C26.8836438,24.329125 27.4462298,23.769375 28.1402576,23.769375 C28.8342854,23.769375 29.3968713,24.329125 29.3968713,25.019375 L29.3968713,30.568875 L35.5637033,26.911625 L35.5637033,23.62725 C34.9186835,23.429625 34.3276981,23.077625 33.8368647,22.5895 C33.0443184,21.801125 32.6077708,20.752875 32.6077708,19.637875 C32.6077708,18.523 33.0441928,17.474875 33.8368647,16.686375 C35.4729758,15.059 38.1351121,15.059 39.7713488,16.686375 C41.40746,18.314 41.40746,20.962 39.7713488,22.589625 C39.2888092,23.0695 38.7092589,23.41725 38.0769309,23.616625 L38.0769309,27.62175 C38.0769309,28.062125 37.8439547,28.469875 37.463829,28.695375 L29.3968713,33.4795 L29.3968713,36.269 L33.9586306,36.269 C34.154034,35.646125 34.4983462,35.059875 34.993452,34.567375 C36.6296888,32.94 39.291825,32.939875 40.9279361,34.567375 C42.5640473,36.195 42.5640473,38.843 40.9279361,40.470625 C40.1353898,41.259 39.0815936,41.69325 37.9606941,41.69325 C36.8397946,41.69325 35.7859983,41.259125 34.993452,40.4705 C34.4983462,39.978125 34.1541597,39.391875 33.9586306,38.769125 L29.3968713,38.769125 L29.3968713,48.5015 C29.3968713,49.19075 29.9605883,49.7515 30.6534851,49.7515 L43.7300592,49.7515 C44.422956,49.7515 44.9866729,49.19075 44.9866729,48.5015 L44.9866729,22.25 C44.9866729,11.359875 36.0800459,2.5 25.1321756,2.5 C22.0093647,2.5 19.0213885,3.200125 16.2510578,4.580875 C15.630542,4.89025 14.8754428,4.640375 14.5646822,4.02325 C14.2537959,3.406 14.5047417,2.655 15.1252576,2.34575 C18.2481941,0.789125 21.6150393,0 25.1320499,0 Z M36.7705552,36.33525 C36.1143515,36.987875 36.1143515,38.05 36.7705552,38.70275 C37.0884785,39.019 37.5110777,39.19325 37.9606941,39.19325 C38.4101848,39.19325 38.8329097,39.019 39.150833,38.70275 C39.8070367,38.050125 39.8070367,36.988 39.150833,36.33525 C38.8227311,36.008875 38.3917126,35.845625 37.9606941,35.845625 C37.5296756,35.845625 37.098657,36.008875 36.7705552,36.33525 Z M35.1209983,19.638 C35.1209983,20.08525 35.2960446,20.50575 35.6139679,20.821875 C36.2701716,21.47475 37.3379163,21.47475 37.99412,20.821875 C38.6503237,20.16925 38.6503237,19.107125 37.99412,18.454375 C37.6660182,18.128 37.2351253,17.96475 36.8041068,17.96475 C36.3730883,17.96475 35.9420697,18.128 35.6139679,18.454375 C35.2960446,18.7705 35.1209983,19.190875 35.1209983,19.638 Z M15.9082536,20.30275 C16.5643316,20.955625 17.632202,20.955625 18.2885314,20.30275 C18.9448607,19.650125 18.9448607,18.587875 18.2885314,17.935125 C17.9604295,17.60875 17.529411,17.4455 17.0983925,17.4455 C16.667374,17.4455 16.2363555,17.60875 15.9082536,17.935125 C15.2519242,18.587875 15.2519242,19.650125 15.9082536,20.30275 Z M28.1402576,8.146 C30.7732404,8.146 32.9153898,10.276875 32.9153898,12.896 C32.9153898,15.515125 30.7732404,17.646 28.1402576,17.646 C25.5072748,17.646 23.3651253,15.515125 23.3651253,12.896 C23.3651253,10.276875 25.5072748,8.146 28.1402576,8.146 Z M28.1402576,15.146 C29.3874467,15.146 30.4021623,14.136625 30.4021623,12.896 C30.4021623,11.655375 29.3874467,10.646 28.1402576,10.646 C26.8930684,10.646 25.8783528,11.655375 25.8783528,12.896 C25.8783528,14.136625 26.8930684,15.146 28.1402576,15.146 Z M29.0289348,19.9325 C29.262665,20.164875 29.3971227,20.487375 29.3971227,20.81625 C29.3971227,21.145 29.262665,21.4675 29.0289348,21.699875 C28.7952047,21.9325 28.4709983,22.06625 28.1405089,22.06625 C27.8100195,22.06625 27.4858131,21.932375 27.252083,21.699875 C27.0183528,21.4675 26.8838951,21.145 26.8838951,20.81625 C26.8838951,20.487375 27.0183528,20.164875 27.252083,19.9325 C27.4858131,19.7 27.8100195,19.56625 28.1405089,19.56625 C28.4709983,19.56625 28.7952047,19.7 29.0289348,19.9325 Z" id="ic-values-authenticity"></path>
                </g>
            </g>
        </g>
    </g>
</svg>