<?xml version="1.0" encoding="UTF-8"?>
<svg width="64px" height="64px" viewBox="0 0 64 64" version="1.1" xmlns="http://www.w3.org/2000/svg" xmlns:xlink="http://www.w3.org/1999/xlink">
    <!-- Generator: Sketch 51.2 (57519) - http://www.bohemiancoding.com/sketch -->
    <title>ic-values-merchant</title>
    <desc>Created with Sketch.</desc>
    <defs></defs>
    <g id="Page-1" stroke="none" stroke-width="1" fill="none" fill-rule="evenodd">
        <g id="About" transform="translate(-250.000000, -888.000000)" fill="#212A37" fill-rule="nonzero">
            <g id="values" transform="translate(250.000000, 700.000000)">
                <g id="merchant-first" transform="translate(0.000000, 188.000000)">
                    <path d="M32,15.375 C22.833,15.375 15.375,22.833 15.375,32 C15.375,41.167 22.833,48.625 32,48.625 C41.167,48.625 48.625,41.167 48.625,32 C48.625,22.833 41.167,15.375 32,15.375 Z M32,46.125 C28.69825,46.125 25.65775,44.985875 23.25,43.0805 L23.25,41.01325 C23.25,39.513 24.320375,38.2245 25.79525,37.949375 L27.66625,37.600375 C28.79075,38.6845 30.318375,39.353375 32,39.353375 C33.681625,39.353375 35.20925,38.6845 36.33375,37.6005 L38.20475,37.9495 C39.679625,38.2245 40.75,39.513 40.75,41.01325 L40.75,43.0805 C38.34225,44.985875 35.30175,46.125 32,46.125 Z M28.25,33.1035 L28.25,31.1035 C28.25,29.03575 29.93225,27.3535 32,27.3535 C34.06775,27.3535 35.75,29.03575 35.75,31.1035 L35.75,33.1035 C35.75,35.17125 34.06775,36.8535 32,36.8535 C29.93225,36.8535 28.25,35.17125 28.25,33.1035 Z M43.230625,40.556 C43.02725,38.0515 41.169625,35.959375 38.663,35.49175 L37.835625,35.337375 C38.102375,34.643125 38.25,33.890375 38.25,33.103375 L38.25,31.103375 C38.25,27.657125 35.44625,24.853375 32,24.853375 C28.55375,24.853375 25.75,27.657125 25.75,31.103375 L25.75,33.103375 C25.75,33.890375 25.897625,34.643125 26.164375,35.337375 L25.337,35.49175 C22.830375,35.95925 20.97275,38.0515 20.769375,40.556 C18.954625,38.179875 17.875,35.213875 17.875,32 C17.875,24.211375 24.211375,17.875 32,17.875 C39.788625,17.875 46.125,24.211375 46.125,32 C46.125,35.213875 45.045375,38.179875 43.230625,40.556 Z M50.749875,56.404 C51.148375,56.967625 51.014375,57.74775 50.45075,58.14625 C45.033875,61.975875 38.65375,64 32,64 C28.319,64 24.709625,63.379625 21.272,62.156125 C20.621625,61.924625 20.282,61.20975 20.5135,60.559375 C20.745,59.908875 21.45975,59.56925 22.11025,59.800875 C25.278,60.928375 28.6055,61.5 32,61.5 C38.134,61.5 44.015125,59.634375 49.0075,56.104875 C49.57125,55.706125 50.35125,55.840375 50.749875,56.404 Z M43.974875,2.317375 C44.615,2.575875 44.924375,3.304375 44.66575,3.9445 C44.40725,4.58475 43.67875,4.89425 43.038625,4.635375 C39.530875,3.2185 35.816875,2.5 32,2.5 C25.708375,2.5 19.70375,4.45425 14.63525,8.151625 C14.413,8.31375 14.155125,8.391875 13.899625,8.391875 C13.513875,8.391875 13.1335,8.213875 12.888625,7.8785 C12.481875,7.32075 12.60425,6.53875 13.161875,6.132 C18.661125,2.120375 25.175125,0 32,0 C36.13925,0 40.16825,0.779625 43.974875,2.317375 Z M57.682625,12.912375 C61.818375,18.458125 64,25.0345 64,32 C64,36.164375 63.211125,40.216 61.655375,44.042375 C61.458,44.527625 60.9905,44.821875 60.497,44.821875 C60.34025,44.821875 60.180875,44.792125 60.026625,44.7295 C59.387125,44.4695 59.0795,43.74025 59.3395,43.10075 C60.773125,39.574875 61.5,35.84 61.5,32 C61.5,25.638875 59.527,19.62975 55.784125,14.54825 C55.15475,14.848125 54.461375,15.0065 53.7435,15.0065 C52.47475,15.0065 51.281875,14.5125 50.38475,13.61525 C49.487625,12.718125 48.9935,11.52525 48.9935,10.2565 C48.9935,8.98775 49.4875,7.794875 50.38475,6.89775 C51.281875,6.000625 52.47475,5.5065 53.7435,5.5065 C55.01225,5.5065 56.205125,6.0005 57.10225,6.89775 C57.999375,7.794875 58.4935,8.98775 58.4935,10.2565 C58.4935,11.21725 58.20975,12.134125 57.682625,12.912375 Z M55.3345,11.847375 C55.7595,11.422375 55.9935,10.857375 55.9935,10.256375 C55.9935,9.655375 55.7595,9.09025 55.3345,8.665375 C54.9095,8.240375 54.3445,8.006375 53.7435,8.006375 C53.1425,8.006375 52.577375,8.240375 52.1525,8.665375 C51.7275,9.090375 51.4935,9.655375 51.4935,10.256375 C51.4935,10.857375 51.7275,11.4225 52.1525,11.847375 C52.5775,12.2725 53.1425,12.506375 53.7435,12.506375 C54.3445,12.506375 54.909625,12.272375 55.3345,11.847375 Z M32,49.88575 C34.619125,49.88575 36.75,52.016625 36.75,54.63575 C36.75,57.254875 34.619125,59.38575 32,59.38575 C29.645125,59.38575 27.686,57.662875 27.31425,55.411625 C20.235875,53.99875 14.1005,49.392 10.767,42.926375 C10.45075,42.31275 10.691625,41.558875 11.30525,41.2425 C11.919125,40.926125 12.67275,41.167125 12.989125,41.78075 C15.938375,47.50075 21.334875,51.59675 27.57425,52.914125 C28.265375,51.143875 29.988,49.88575 32,49.88575 Z M32,56.88575 C33.240625,56.88575 34.25,55.876375 34.25,54.63575 C34.25,53.395125 33.240625,52.38575 32,52.38575 C30.759375,52.38575 29.75,53.395125 29.75,54.63575 C29.75,55.876375 30.759375,56.88575 32,56.88575 Z M12.908125,51.09175 C14.37025,52.554 14.37025,54.933 12.908125,56.395125 C12.177125,57.126125 11.21675,57.491625 10.2565,57.491625 C9.29625,57.491625 8.336,57.126125 7.604875,56.395125 C6.399,55.18925 6.18875,53.360125 6.949,51.910125 C2.402875,46.197625 0,39.31275 0,32 C0,28.604875 0.5295,25.261625 1.574,22.063125 C1.78825,21.406875 2.494,21.048375 3.15025,21.262875 C3.8065,21.477125 4.16475,22.182875 3.9505,22.839125 C2.988,25.786625 2.5,28.868875 2.5,32 C2.5,38.7065 4.69275,45.02175 8.841,50.271 C10.19625,49.72075 11.8105,49.994375 12.908125,51.09175 Z M11.140375,54.627375 C11.3765,54.39125 11.5065,54.077375 11.5065,53.7435 C11.5065,53.409625 11.3765,53.09575 11.140375,52.859625 C10.90425,52.6235 10.590375,52.4935 10.2565,52.4935 C9.922625,52.4935 9.60875,52.6235 9.372625,52.859625 C9.1365,53.09575 9.0065,53.409625 9.0065,53.7435 C9.0065,54.077375 9.1365,54.39125 9.372625,54.627375 C9.60875,54.8635 9.922625,54.9935 10.2565,54.9935 C10.590375,54.9935 10.90425,54.8635 11.140375,54.627375 Z M54.5485,34.251875 C55.23075,34.357375 55.69825,34.996 55.5925,35.678375 C55.029625,39.317 53.600125,42.8295 51.4585,45.83625 C49.356,48.788125 46.564875,51.2615 43.386625,52.989125 C43.197,53.092125 42.992375,53.141125 42.79075,53.141125 C42.3475,53.141125 41.918125,52.90475 41.6915,52.487875 C41.361875,51.88125 41.58625,51.122375 42.19275,50.792625 C48.02575,47.621875 52.1115,41.828875 53.122125,35.296125 C53.227625,34.613875 53.866375,34.14625 54.5485,34.251875 Z M22.22425,11.55225 C22.5565,12.157375 22.335125,12.91725 21.73,13.2495 C15.941,16.427375 11.88425,22.203875 10.87825,28.701625 C10.782625,29.319125 10.250375,29.760625 9.6445,29.760625 C9.580875,29.760625 9.516625,29.75575 9.45175,29.74575 C8.7695,29.640125 8.302125,29.001375 8.407625,28.31925 C8.968375,24.697625 10.38825,21.1995 12.51375,18.202625 C14.600125,15.261 17.371,12.790375 20.527,11.058 C21.132,10.725875 21.892,10.947 22.22425,11.55225 Z M52.6025,19.9295 C52.952,20.524875 52.75275,21.290875 52.157375,21.640375 C51.958625,21.757 51.74075,21.8125 51.52575,21.8125 C51.096875,21.8125 50.6795,21.591625 50.446625,21.195 C47.198625,15.66225 41.732,11.91725 35.433625,10.901125 C34.852625,12.2215 33.5325,13.146 32,13.146 C29.93225,13.146 28.25,11.46375 28.25,9.396 C28.25,7.32825 29.93225,5.646 32,5.646 C33.72325,5.646 35.177875,6.814875 35.681625,8.407875 C42.782125,9.5075 48.9495,13.706875 52.6025,19.9295 Z M32,10.646 C32.68925,10.646 33.25,10.08525 33.25,9.396 C33.25,8.70675 32.68925,8.146 32,8.146 C31.31075,8.146 30.75,8.70675 30.75,9.396 C30.75,10.08525 31.31075,10.646 32,10.646 Z M11.14,9.3725 C11.3725,9.605 11.50625,9.9275 11.50625,10.25625 C11.50625,10.585 11.3725,10.9075 11.14,11.14 C10.9075,11.3725 10.58625,11.50625 10.25625,11.50625 C9.9275,11.50625 9.605,11.3725 9.3725,11.14 C9.14,10.9075 9.00625,10.585 9.00625,10.25625 C9.00625,9.9275 9.14,9.605 9.3725,9.3725 C9.605,9.14 9.9275,9.00625 10.25625,9.00625 C10.585,9.00625 10.9075,9.14 11.14,9.3725 Z M54.6275,52.86 C54.86,53.0925 54.99375,53.415 54.99375,53.74375 C54.99375,54.0725 54.86,54.395 54.6275,54.6275 C54.395,54.86 54.0725,54.99375 53.74375,54.99375 C53.415,54.99375 53.0925,54.86 52.86,54.6275 C52.6275,54.395 52.49375,54.0725 52.49375,53.74375 C52.49375,53.415 52.6275,53.0925 52.86,52.86 C53.0925,52.6275 53.415,52.49375 53.74375,52.49375 C54.0725,52.49375 54.395,52.6275 54.6275,52.86 Z" id="ic-values-merchant"></path>
                </g>
            </g>
        </g>
    </g>
</svg>